<svg id="visual" viewBox="0 0 1000 500" width="1000" height="500" xmlns="http://www.w3.org/2000/svg" xmlns:xlink="http://www.w3.org/1999/xlink" version="1.1"><rect x="0" y="0" width="1000" height="500" fill="#001220"></rect><path d="M0 198L23.8 187.2C47.7 176.3 95.3 154.7 143 149.7C190.7 144.7 238.3 156.3 286 160.3C333.7 164.3 381.3 160.7 428.8 162.3C476.3 164 523.7 171 571.2 167.2C618.7 163.3 666.3 148.7 714 140C761.7 131.3 809.3 128.7 857 136.7C904.7 144.7 952.3 163.3 976.2 172.7L1000 182L1000 0L976.2 0C952.3 0 904.7 0 857 0C809.3 0 761.7 0 714 0C666.3 0 618.7 0 571.2 0C523.7 0 476.3 0 428.8 0C381.3 0 333.7 0 286 0C238.3 0 190.7 0 143 0C95.3 0 47.7 0 23.8 0L0 0Z" fill="#4facf7"></path><path d="M0 101L23.8 101.3C47.7 101.7 95.3 102.3 143 105.3C190.7 108.3 238.3 113.7 286 123.8C333.7 134 381.3 149 428.8 146.8C476.3 144.7 523.7 125.3 571.2 117C618.7 108.7 666.3 111.3 714 111.8C761.7 112.3 809.3 110.7 857 114.2C904.7 117.7 952.3 126.3 976.2 130.7L1000 135L1000 0L976.2 0C952.3 0 904.7 0 857 0C809.3 0 761.7 0 714 0C666.3 0 618.7 0 571.2 0C523.7 0 476.3 0 428.8 0C381.3 0 333.7 0 286 0C238.3 0 190.7 0 143 0C95.3 0 47.7 0 23.8 0L0 0Z" fill="#7d91ea"></path><path d="M0 118L23.8 118.8C47.7 119.7 95.3 121.3 143 118.2C190.7 115 238.3 107 286 107.8C333.7 108.7 381.3 118.3 428.8 122C476.3 125.7 523.7 123.3 571.2 114.2C618.7 105 666.3 89 714 84.3C761.7 79.7 809.3 86.3 857 95C904.7 103.7 952.3 114.3 976.2 119.7L1000 125L1000 0L976.2 0C952.3 0 904.7 0 857 0C809.3 0 761.7 0 714 0C666.3 0 618.7 0 571.2 0C523.7 0 476.3 0 428.8 0C381.3 0 333.7 0 286 0C238.3 0 190.7 0 143 0C95.3 0 47.7 0 23.8 0L0 0Z" fill="#a571cd"></path><path d="M0 52L23.8 53.5C47.7 55 95.3 58 143 63.2C190.7 68.3 238.3 75.7 286 75.7C333.7 75.7 381.3 68.3 428.8 68.8C476.3 69.3 523.7 77.7 571.2 79.2C618.7 80.7 666.3 75.3 714 76.5C761.7 77.7 809.3 85.3 857 84.2C904.7 83 952.3 73 976.2 68L1000 63L1000 0L976.2 0C952.3 0 904.7 0 857 0C809.3 0 761.7 0 714 0C666.3 0 618.7 0 571.2 0C523.7 0 476.3 0 428.8 0C381.3 0 333.7 0 286 0C238.3 0 190.7 0 143 0C95.3 0 47.7 0 23.8 0L0 0Z" fill="#bf4ca0"></path><path d="M0 34L23.8 33.8C47.7 33.7 95.3 33.3 143 33.2C190.7 33 238.3 33 286 31.2C333.7 29.3 381.3 25.7 428.8 23.5C476.3 21.3 523.7 20.7 571.2 24.7C618.7 28.7 666.3 37.3 714 44C761.7 50.7 809.3 55.3 857 57.5C904.7 59.7 952.3 59.3 976.2 59.2L1000 59L1000 0L976.2 0C952.3 0 904.7 0 857 0C809.3 0 761.7 0 714 0C666.3 0 618.7 0 571.2 0C523.7 0 476.3 0 428.8 0C381.3 0 333.7 0 286 0C238.3 0 190.7 0 143 0C95.3 0 47.7 0 23.8 0L0 0Z" fill="#c62368"></path></svg>